<?xml version="1.0" encoding="utf-8"?>
<!-- Generator: Adobe Illustrator 17.0.0, SVG Export Plug-In . SVG Version: 6.00 Build 0)  -->
<!DOCTYPE svg PUBLIC "-//W3C//DTD SVG 1.1//EN" "http://www.w3.org/Graphics/SVG/1.1/DTD/svg11.dtd">
<svg version="1.1" id="Layer_1" xmlns="http://www.w3.org/2000/svg" xmlns:xlink="http://www.w3.org/1999/xlink" x="0px" y="0px"
	 width="50px" height="50px" viewBox="0 0 50 50" enable-background="new 0 0 50 50" xml:space="preserve">
<g>
	<path fill="#FFA64D" d="M39.462,34.007H32.29l-5.932-17.301c-0.346-1.011-0.524-2.071-0.524-3.14c0-5.348,4.335-9.683,9.683-9.683
		h0.717c5.348,0,9.682,4.335,9.682,9.683c0,1.365-0.231,2.72-0.683,4.007L39.462,34.007z M39.462,34.007"/>
	<rect x="30.138" y="7.47" fill="#333333" width="1.434" height="1.435"/>
	<rect x="27.986" y="11.056" fill="#333333" width="1.435" height="1.435"/>
	<rect x="27.986" y="15.36" fill="#333333" width="1.435" height="1.435"/>
	<rect x="30.855" y="13.208" fill="#333333" width="1.435" height="1.434"/>
	<rect x="32.29" y="10.339" fill="#333333" width="1.435" height="1.435"/>
	<rect x="30.138" y="18.228" fill="#333333" width="1.434" height="1.435"/>
	<path fill="#333333" d="M21.024,11.86c0.839-0.839,0.839-2.203,0-3.042l-4.995-4.996c-0.417-0.416-0.993-0.655-1.583-0.655
		c-1.234,0-2.238,1.004-2.238,2.238v2.782h-0.003c-1.567,0-3.07,0.665-4.125,1.825c-3.813,4.195-5.913,9.626-5.913,15.295v0.186
		c0,5.669,2.1,11.101,5.942,15.327c1.036,1.139,2.514,1.793,4.053,1.793h0.046v2.782c0,1.235,1.004,2.239,2.238,2.239
		c0.59,0,1.166-0.239,1.583-0.656l4.995-4.995c0.839-0.839,0.839-2.203,0-3.042c-0.406-0.407-0.946-0.63-1.521-0.63h-1.687
		c0.083-0.379,0.13-0.771,0.13-1.175c0-0.746-0.149-1.473-0.443-2.157L15.626,30.6c-1.243-2.903-1.318-6.129-0.209-9.085
		l2.174-5.796c0.235-0.629,0.355-1.287,0.355-1.958c0-0.438-0.056-0.862-0.152-1.271h1.71C20.078,12.49,20.618,12.267,21.024,11.86
		L21.024,11.86z M19.503,39.745c0.189,0,0.374,0.076,0.507,0.21c0.28,0.28,0.28,0.735,0,1.014l-4.996,4.996
		c-0.15,0.15-0.357,0.235-0.569,0.235c-0.443,0-0.804-0.361-0.804-0.804v-2.912c0.598-0.131,1.158-0.363,1.666-0.672l0.562,1.123
		l1.283-0.642l-0.703-1.407c0.324-0.343,0.607-0.725,0.834-1.142L19.503,39.745L19.503,39.745z M16.247,15.215l-0.732,1.952
		c-1.836-1.17-3.998-1.808-6.177-1.808v1.435c2.01,0,3.998,0.625,5.658,1.755l-0.923,2.462c-0.502,1.34-0.776,2.73-0.845,4.124
		c-1.783-0.767-3.724-1.17-5.663-1.17H7.187V25.4h0.379c1.96,0,3.922,0.459,5.682,1.325c0.087,1.261,0.35,2.51,0.791,3.72
		c-1.967,0.118-3.802,0.932-5.207,2.337l1.014,1.014c1.253-1.252,2.917-1.941,4.687-1.941h0.07l1.581,3.689
		c0.217,0.506,0.327,1.041,0.327,1.592c0,2.23-1.814,4.044-4.044,4.044h-0.306c-1.137,0-2.227-0.482-3.021-1.356
		c-3.573-3.929-5.54-9.018-5.54-14.33v-0.186c0-5.311,1.967-10.401,5.54-14.33c0.784-0.861,1.9-1.355,3.063-1.355h0.166
		c2.283,0,4.14,1.857,4.14,4.139C16.511,14.259,16.422,14.748,16.247,15.215L16.247,15.215z M16.611,10.152l0.579-1.738l-1.36-0.454
		l-0.385,1.157c-0.542-0.36-1.152-0.624-1.804-0.777V5.405c0-0.443,0.361-0.804,0.804-0.804c0.211,0,0.419,0.085,0.569,0.235
		l4.996,4.996c0.28,0.28,0.28,0.734,0,1.014c-0.134,0.134-0.319,0.21-0.507,0.21h-2.262C17.061,10.733,16.849,10.431,16.611,10.152
		L16.611,10.152z M16.611,10.152"/>
	<path fill="#333333" d="M45.91,17.811c0.481-1.367,0.724-2.796,0.724-4.245c0-5.734-4.666-10.4-10.4-10.4h-0.717
		c-5.734,0-10.4,4.666-10.4,10.4c0,1.151,0.189,2.286,0.562,3.373l5.893,17.187v5.213l-1.682,1.009
		c-1.174,0.704-1.904,1.993-1.904,3.363c0,2.163,1.76,3.923,3.923,3.923h0.487c1.048,0,2.033-0.408,2.774-1.149l0.706-0.706
		l0.706,0.706c0.741,0.742,1.726,1.149,2.774,1.149h0.487c2.163,0,3.923-1.76,3.923-3.923c0-1.37-0.73-2.659-1.904-3.364
		l-1.683-1.009V34.13L45.91,17.811z M26.552,13.566c0-4.944,4.021-8.965,8.965-8.965h0.717c4.944,0,8.965,4.021,8.965,8.965
		c0,1.287-0.217,2.555-0.643,3.77L38.953,33.29h-6.151l-5.765-16.815C26.715,15.537,26.552,14.559,26.552,13.566L26.552,13.566z
		 M41.122,41.578c0.745,0.447,1.208,1.264,1.208,2.133c0,1.372-1.117,2.489-2.489,2.489h-0.487c-0.665,0-1.29-0.258-1.759-0.729
		l-1.72-1.72l-1.72,1.72c-0.471,0.471-1.095,0.729-1.76,0.729h-0.486c-1.372,0-2.489-1.117-2.489-2.489
		c0-0.869,0.464-1.687,1.209-2.134l2.377-1.427v-5.426h5.738v5.426L41.122,41.578z M41.122,41.578"/>
</g>
</svg>
